HIERARCHY
ROOT root
{
	OFFSET	0	13.1	24.9
	CHANNELS 6  Xposition Yposition Zposition Xrotation Yrotation Zrotation
	JOINT spine_1
	{
		OFFSET	0	9.99999	0
		CHANNELS 3  Xrotation Yrotation Zrotation
		JOINT spine_2
		{
			OFFSET	0	112	-10
			CHANNELS 3  Xrotation Yrotation Zrotation
			JOINT spine_3
			{
				OFFSET	0	206.5	19.3
				CHANNELS 3  Xrotation Yrotation Zrotation
				JOINT spine_4
				{
					OFFSET	0	110.4	14.6
					CHANNELS 3  Xrotation Yrotation Zrotation
					JOINT neck_1
					{
						OFFSET	0	71.8	-50.3
						CHANNELS 3  Xrotation Yrotation Zrotation
						JOINT neck_2
						{
							OFFSET	0	86.2	-25.8
							CHANNELS 3  Xrotation Yrotation Zrotation
							JOINT head_ee
							{
								OFFSET	0	179.8	-8.7
								CHANNELS 3  Xrotation Yrotation Zrotation
								End Site
								{
									OFFSET	1	0	0
								}
							}
						}
					}
					JOINT left_clavicle
					{
						OFFSET	-43.2	22.4	-70.8
						CHANNELS 3  Xrotation Yrotation Zrotation
						JOINT left_shoulder
						{
							OFFSET	-93.9	-5.79999	48.7
							CHANNELS 3  Xrotation Yrotation Zrotation
							JOINT left_elbow
							{
								OFFSET	-291.4	-30.8	15.2
								CHANNELS 3  Xrotation Yrotation Zrotation
								JOINT left_lowarm_twist
								{
									OFFSET	-110.7	-3.89999	13.6
									CHANNELS 3  Xrotation Yrotation Zrotation
									JOINT left_hand
									{
										OFFSET	-110.7	-3.89999	13.6
										CHANNELS 3  Xrotation Yrotation Zrotation
										JOINT left_ee
										{
											OFFSET	-80.8	-5.10001	12.1
											CHANNELS 3  Xrotation Yrotation Zrotation
											End Site
											{
												OFFSET	1	0	0
											}
										}
									}
								}
							}
						}
					}
					JOINT right_clavicle
					{
						OFFSET	43.2	22.4	-70.8
						CHANNELS 3  Xrotation Yrotation Zrotation
						JOINT right_shoulder
						{
							OFFSET	93.9	-5.79999	48.7
							CHANNELS 3  Xrotation Yrotation Zrotation
							JOINT right_elbow
							{
								OFFSET	291.4	-30.8	15.2
								CHANNELS 3  Xrotation Yrotation Zrotation
								JOINT right_lowarm_twist
								{
									OFFSET	110.7	-3.89999	13.6
									CHANNELS 3  Xrotation Yrotation Zrotation
									JOINT right_hand
									{
										OFFSET	110.7	-3.89999	13.6
										CHANNELS 3  Xrotation Yrotation Zrotation
										JOINT right_ee
										{
											OFFSET	80.8	-5.10001	12.1
											CHANNELS 3  Xrotation Yrotation Zrotation
											End Site
											{
												OFFSET	1	0	0
											}
										}
									}
								}
							}
						}
					}
				}
			}
		}
	}
	JOINT left_hip
	{
		OFFSET	-82.8	-127.5	0.300001
		CHANNELS 3  Xrotation Yrotation Zrotation
		JOINT left_knee
		{
			OFFSET	-28.2	-396.7	2.2
			CHANNELS 3  Xrotation Yrotation Zrotation
			JOINT left_ankle
			{
				OFFSET	-11.7	-411.3	35.4
				CHANNELS 3  Xrotation Yrotation Zrotation
				JOINT left_toes
				{
					OFFSET	0	-60	-88.6
					CHANNELS 3  Xrotation Yrotation Zrotation
					JOINT left_foot_ee
					{
						OFFSET	-22.5	-16.5	-42.2
						CHANNELS 3  Xrotation Yrotation Zrotation
						End Site
						{
							OFFSET	1	0	0
						}
					}
				}
			}
		}
	}
	JOINT right_hip
	{
		OFFSET	82.8	-127.5	0.300001
		CHANNELS 3  Xrotation Yrotation Zrotation
		JOINT right_knee
		{
			OFFSET	28.2	-396.7	2.2
			CHANNELS 3  Xrotation Yrotation Zrotation
			JOINT right_ankle
			{
				OFFSET	11.7	-411.3	35.4
				CHANNELS 3  Xrotation Yrotation Zrotation
				JOINT right_toes
				{
					OFFSET	0	-60	-88.6
					CHANNELS 3  Xrotation Yrotation Zrotation
					JOINT right_foot_ee
					{
						OFFSET	22.5	-16.5	-42.2
						CHANNELS 3  Xrotation Yrotation Zrotation
						End Site
						{
							OFFSET	1	0	0
						}
					}
				}
			}
		}
	}
}
MOTION
Frames: 15
Frame Time: 0.02
3540.17 751.726 -831.975 -17.7936 39.0746 11.8402 5.82247 0.20334 -0.525737 5.82259 0.236381 -0.511733 5.82036 0.291222 -0.482635 5.8201 0.211345 -0.52257 -14.6696 -3.22987 3.9941 -14.6854 -8.56592 2.72912 -0.0 0.0 -0.0 8.25242 19.2896 14.7751 -42.4347 -25.1215 49.4379 0.709427 -19.363 0.12103 12.4323 0.269481 -1.56215 -0.107703 -0.289483 -0.841813 -0.0 0.0 -0.0 4.62517 8.62746 -8.4925 -31.0685 15.6675 -60.1649 0.85803 23.0274 -0.174785 29.9111 -0.0690944 3.77722 -0.612056 -15.7695 -2.66079 0.0 0.0 0.0 17.5516 -22.2506 1.6554 -17.2836 0.318085 2.62322 30.0973 -0.110951 -3.92153 -20.9084 0.0 0.0 -0.0 0.0 -0.0 14.0827 7.57653 6.19752 -7.6235 -0.237997 -1.14491 6.17843 -18.7411 0.904664 2.17772 -0.0 -0.0 0.0 0.0 0.0 
3535.37 754.335 -832.952 -18.4133 40.0569 12.8928 5.82955 0.574204 -0.570398 5.82953 0.609336 -0.532704 5.82393 0.664203 -0.46249 5.82411 0.582827 -0.561584 -13.8518 -4.0649 2.48747 -13.8974 -9.27508 1.09335 -0.0 0.0 -0.0 8.61502 20.0981 15.2468 -42.8058 -25.1057 48.9221 0.590723 -16.311 0.0846572 12.6541 0.271191 -1.59043 -0.202673 1.29598 -0.803224 -0.0 0.0 -0.0 4.72865 9.29862 -8.66516 -30.4469 15.8478 -60.4509 0.841553 22.6301 -0.168392 29.8065 -0.072295 3.76425 -0.701841 -15.8337 -2.13482 0.0 0.0 0.0 17.8156 -22.7471 0.614128 -15.9683 0.321859 2.42145 32.0445 -2.07191 -4.14255 -20.3944 0.0 0.0 -0.0 0.0 -0.0 13.1713 8.56015 6.67584 -6.87878 -0.221493 -1.03182 4.83168 -16.7149 0.705929 2.05189 -0.0 -0.0 0.0 0.0 0.0 
3533.41 755.358 -833.956 -19.0925 41.651 13.7969 5.77861 0.498527 -0.572969 5.77864 0.533975 -0.540086 5.77362 0.590529 -0.477595 5.77366 0.507692 -0.564864 -13.6465 -2.78487 1.59917 -13.6672 -6.29299 0.662647 -0.0 0.0 -0.0 8.54907 20.2455 15.1248 -43.0885 -25.2351 48.8535 0.550374 -15.2506 0.0736834 13.1542 0.274644 -1.65422 -0.068288 2.24463 0.490044 -0.0 0.0 -0.0 5.2145 10.4728 -9.60625 -29.6251 16.0884 -60.4668 0.815013 21.9855 -0.158318 29.7242 -0.074797 3.75403 -1.22793 -15.8218 1.10686 0.0 0.0 0.0 19.0368 -22.9445 0.282508 -16.871 0.319767 2.55994 33.8329 -0.169097 -4.3062 -20.516 0.0 0.0 -0.0 0.0 -0.0 12.5999 7.38932 6.43802 -6.17932 -0.204653 -0.925804 4.3327 -17.355 0.634988 1.68022 -0.0 -0.0 0.0 0.0 0.0 
3533.27 754.772 -834.731 -20.061 42.8797 14.9197 5.83553 0.644911 -0.585959 5.83547 0.68089 -0.543735 5.82913 0.736497 -0.465649 5.82942 0.653714 -0.576122 -13.3732 -3.64076 0.983834 -13.409 -7.54358 -0.170362 -0.0 0.0 -0.0 8.50735 19.9049 15.1026 -43.491 -25.2731 48.9953 0.502491 -13.9781 0.0616013 13.2253 0.27509 -1.66329 -0.286077 2.88889 -0.681027 -0.0 0.0 -0.0 5.43731 10.4843 -10.0726 -29.1917 16.2195 -60.2097 0.828048 22.3028 -0.163231 29.6716 -0.0763895 3.7475 -1.21241 -15.8311 1.00723 0.0 0.0 0.0 18.7503 -23.1951 -0.123475 -15.3146 0.322011 2.32116 33.7672 -0.579385 -4.30294 -20.7121 0.0 0.0 -0.0 0.0 -0.0 12.5773 7.4951 6.22284 -5.43097 -0.185203 -0.812606 4.66616 -16.2508 0.681253 1.74887 -0.0 -0.0 0.0 0.0 0.0 
3532.48 755.27 -836.242 -21.2404 44.774 16.1786 5.90752 0.388481 -0.420887 5.90753 0.414475 -0.395315 5.90469 0.454923 -0.348006 5.90474 0.394253 -0.415485 -13.9889 -1.56992 1.61767 -13.9933 -3.98309 1.04388 -0.0 0.0 -0.0 7.88282 20.0973 14.1066 -43.6786 -25.2551 49.276 0.57022 -15.7736 0.0789912 13.8873 0.2787 -1.74776 -0.160556 4.00801 0.620738 -0.0 0.0 -0.0 6.27709 9.71467 -11.876 -28.212 16.5199 -58.6603 0.827977 22.3011 -0.163204 28.666 -0.105654 3.62239 -1.65329 -15.3529 3.94634 0.0 0.0 0.0 20.5444 -25.0511 0.0595896 -16.6931 0.320352 2.53265 34.318 1.40624 -4.34356 -20.4097 0.0 0.0 -0.0 0.0 -0.0 12.0538 6.26422 5.78856 -5.21707 -0.179373 -0.780298 5.78084 -17.0468 0.843111 1.57781 -0.0 -0.0 0.0 0.0 0.0 
3531.49 756.765 -835.275 -22.2678 46.8924 17.4436 5.72877 0.18746 -0.340483 5.72881 0.208745 -0.327864 5.72758 0.244021 -0.302528 5.7275 0.19318 -0.33727 -14.1847 -0.12883 1.58096 -14.1787 -1.20697 1.45906 -0.0 0.0 -0.0 7.68111 19.4463 13.8604 -43.7428 -25.3903 49.4015 0.584288 -16.1427 0.0828588 14.371 0.28072 -1.80951 -0.108879 4.76726 1.27904 -0.0 0.0 -0.0 6.84664 9.30011 -13.092 -27.5521 16.8164 -57.6627 0.847484 22.7734 -0.170681 28.0852 -0.121555 3.5499 -1.80167 -14.899 5.08226 0.0 0.0 0.0 21.7439 -26.2006 0.164905 -16.7547 0.320159 2.54209 34.6692 2.63667 -4.37204 -20.3154 0.0 0.0 -0.0 0.0 -0.0 11.7454 5.38554 6.05424 -4.94751 -0.171853 -0.739613 5.58599 -17.0726 0.8152 1.01768 -0.0 -0.0 0.0 0.0 0.0 
3530.41 754.515 -837.783 -22.6915 48.043 18.1253 5.73941 0.134617 -0.259732 5.73943 0.150872 -0.25064 5.73875 0.177847 -0.232278 5.7387 0.138931 -0.257451 -14.6301 1.75094 1.0746 -14.6327 2.70037 1.58483 -0.0 0.0 -0.0 7.42268 17.8137 13.6024 -44.4134 -25.3066 49.9205 0.615998 -16.9696 0.0918951 14.9528 0.282459 -1.8838 -0.0714968 5.66239 1.89734 -0.0 0.0 -0.0 7.23138 8.98753 -13.9146 -26.7622 17.6432 -56.9114 0.846877 22.7587 -0.170446 27.5511 -0.135529 3.4831 -2.00061 -14.013 6.75407 0.0 0.0 0.0 22.6272 -26.8358 0.340177 -18.54 0.310156 2.81583 34.4239 6.0788 -4.34227 -20.0542 0.0 0.0 -0.0 0.0 -0.0 11.0668 4.66715 5.67677 -4.13761 -0.148107 -0.617588 7.4613 -18.1285 1.08629 1.28913 -0.0 -0.0 0.0 0.0 0.0 
3525.24 749.973 -838.16 -23.7565 48.3214 19.0003 5.75253 0.11696 -0.152804 5.75253 0.126446 -0.145052 5.75221 0.141783 -0.130101 5.75221 0.119456 -0.15086 -13.3466 3.40632 0.714619 -13.3698 6.04176 1.71454 -0.0 0.0 -0.0 7.07806 18.569 12.9928 -44.4276 -25.0392 49.5141 0.596977 -16.4744 0.0864222 15.3447 0.283206 -1.93385 0.112724 7.60344 3.89809 -0.0 0.0 -0.0 7.48614 8.14518 -14.4779 -26.2479 17.5277 -56.1252 0.96091 25.4543 -0.217034 27.1303 -0.146098 3.43038 -1.96447 -12.0318 7.4886 0.0 0.0 0.0 23.8872 -27.359 1.1323 -20.0621 0.294896 3.04885 36.4072 7.21234 -4.53527 -19.7609 0.0 0.0 -0.0 0.0 -0.0 10.6774 4.15901 5.6635 -3.62361 -0.132143 -0.54032 7.93289 -18.8327 1.15592 0.667708 -0.0 -0.0 0.0 0.0 0.0 
3516.68 746.454 -839.752 -23.3332 48.395 19.331 5.80541 0.0992236 -0.247638 5.80544 0.11478 -0.240823 5.80493 0.140625 -0.226704 5.80487 0.103056 -0.246068 -13.6864 5.23565 0.543153 -13.7522 9.64496 2.14073 -0.0 0.0 -0.0 6.58531 16.1564 12.3666 -45.005 -23.5686 51.3779 0.645351 -17.7286 0.100648 16.7984 0.282984 -2.11952 0.398552 6.374 5.26774 -0.0 0.0 -0.0 7.85944 7.92667 -15.2706 -26.5229 17.6211 -54.8272 1.15928 29.8667 -0.309194 25.5663 -0.181979 3.23382 -1.85513 -11.691 6.95468 0.0 0.0 0.0 23.873 -27.4202 0.760425 -23.0508 0.246948 3.5049 39.0482 7.52295 -4.77876 -19.864 0.0 0.0 -0.0 0.0 -0.0 10.1657 3.44496 5.52738 -4.22183 -0.150657 -0.630262 8.96725 -17.4841 1.29698 0.64672 -0.0 -0.0 0.0 0.0 0.0 
3512.39 744.447 -840.655 -23.9731 49.3387 20.1586 5.88826 0.0833775 -0.265417 5.88829 0.100098 -0.259574 5.88781 0.127741 -0.247145 5.88773 0.0871058 -0.264217 -12.8658 6.96127 -0.175271 -12.9786 13.3471 1.90743 -0.0 0.0 -0.0 6.24677 13.7022 11.9219 -45.5278 -22.5602 52.6254 0.684849 -18.7398 0.113007 18.0175 0.279166 -2.27518 0.677016 6.80002 7.26491 -0.0 0.0 -0.0 8.14763 7.61472 -15.8859 -26.5685 17.8009 -53.9353 1.2914 32.6065 -0.377727 24.3662 -0.205863 3.08239 -1.86474 -11.2232 7.24042 0.0 0.0 0.0 24.4153 -26.6107 0.553909 -24.2584 0.220835 3.68838 40.1016 9.50611 -4.88188 -19.5139 0.0 0.0 -0.0 0.0 -0.0 9.83116 3.18981 5.42279 -4.10377 -0.147077 -0.612496 10.7003 -17.3654 1.53841 0.798147 -0.0 -0.0 0.0 0.0 0.0 
3501.98 742.544 -834.898 -23.8523 49.1337 20.2484 5.8809 -0.0387354 -0.193291 5.88092 -0.0263573 -0.195364 5.88099 -0.00492621 -0.197072 5.88094 -0.0359882 -0.193821 -14.7839 8.57779 -0.0623968 -15.0167 16.4343 2.7976 -0.0 0.0 -0.0 6.18462 12.5823 11.8565 -46.0002 -21.9412 54.6458 0.665661 -18.25 0.106921 18.863 0.274574 -2.38308 0.748474 7.04757 7.83173 -0.0 0.0 -0.0 8.30949 7.28632 -16.2336 -26.6429 17.9281 -53.2765 1.45429 35.7672 -0.469286 23.7447 -0.216984 3.00378 -1.75008 -9.79117 7.18436 0.0 0.0 0.0 24.4424 -27.1445 1.20581 -25.7232 0.183977 3.91015 40.2 11.3529 -4.90552 -19.4622 0.0 0.0 -0.0 0.0 -0.0 9.55188 2.9101 5.40995 -4.26163 -0.151855 -0.636252 11.7775 -17.3274 1.68689 0.77736 -0.0 -0.0 0.0 0.0 0.0 
3495.03 743.056 -833.133 -24.0453 49.977 20.8059 5.96726 -0.177682 -0.171422 5.96726 -0.166414 -0.182381 5.96779 -0.145866 -0.199196 5.96778 -0.175495 -0.17366 -14.2402 9.56908 -0.232445 -14.5138 18.4081 2.89057 -0.0 0.0 -0.0 6.23174 11.3079 11.9777 -45.8639 -21.6867 55.4474 0.660045 -18.1061 0.105169 19.3196 0.271432 -2.44131 0.805749 7.28592 8.30125 -0.0 0.0 -0.0 8.22965 7.55765 -16.0604 -27.0628 17.9981 -52.9828 1.63149 38.9419 -0.576846 23.2081 -0.2259 2.93582 -1.54569 -8.26264 6.57441 0.0 0.0 0.0 24.8767 -20.7245 0.496891 -26.5078 0.161906 4.02853 38.4672 12.2424 -4.7587 -19.8517 0.0 0.0 -0.0 0.0 -0.0 9.24444 2.68017 5.39587 -4.3938 -0.155805 -0.656152 12.0305 -17.5827 1.72293 0.378645 -0.0 -0.0 0.0 0.0 0.0 
3487.91 743.39 -831.747 -23.3583 50.2655 20.1402 5.74942 -0.112739 -0.129616 5.74942 -0.104263 -0.136528 5.74966 -0.0884385 -0.147272 5.74965 -0.110588 -0.131457 -15.0181 11.1137 -1.62369 -15.4648 22.213 2.27771 -0.0 0.0 -0.0 6.4784 10.3165 12.4412 -45.0661 -21.1753 55.5081 0.618006 -17.0217 0.0924818 20.1981 0.264083 -2.55327 0.938394 7.88663 9.40561 -0.0 0.0 -0.0 8.25377 6.94896 -16.1207 -27.5529 16.9467 -52.6635 1.93326 43.7569 -0.776381 20.6355 -0.259783 2.60898 -1.06049 -5.41846 4.69089 0.0 0.0 0.0 25.2278 -17.2745 0.67451 -28.2787 0.106136 4.29458 36.5843 10.9797 -4.5713 -17.9898 0.0 0.0 -0.0 0.0 -0.0 9.61513 2.58313 5.63125 -6.04826 -0.201354 -0.905962 13.3519 -18.4686 1.90862 1.82968 -0.0 -0.0 0.0 0.0 0.0 
3475.81 740.246 -827.894 -23.1724 50.3215 20.1092 5.8926 -0.196651 -0.0944159 5.89259 -0.190245 -0.106738 5.89295 -0.177517 -0.126783 5.89299 -0.195312 -0.0971559 -16.3906 12.1119 -2.33823 -17.0411 24.5516 2.30281 -0.0 0.0 -0.0 6.55492 9.56409 12.6005 -44.8383 -20.8709 55.7038 0.571179 -15.7988 0.079252 20.6794 0.259328 -2.61457 0.920877 8.3036 9.4503 -0.0 0.0 -0.0 8.23803 6.82827 -16.0892 -28.1579 16.1177 -52.4984 2.13209 46.5591 -0.917407 18.8936 -0.274378 2.38698 -0.823113 -4.32832 3.60878 0.0 0.0 0.0 25.0173 -14.1172 0.908923 -29.2837 0.0708361 4.44477 33.3779 10.1821 -4.25082 -17.2924 0.0 0.0 -0.0 0.0 -0.0 9.66297 2.50579 5.86416 -7.32724 -0.231607 -1.0999 13.9433 -19.1821 1.9938 2.56305 -0.0 -0.0 0.0 0.0 0.0 
3464.42 741.909 -823.75 -22.4258 51.1186 19.3474 5.84246 -0.279641 -0.0364963 5.84242 -0.276752 -0.0542167 5.84273 -0.269146 -0.0842106 5.84282 -0.279067 -0.0406469 -17.3734 13.0574 -2.27045 -18.2201 26.3267 3.00647 -0.0 0.0 -0.0 6.58652 8.7769 12.6802 -44.28 -20.7741 55.5604 0.565513 -15.6498 0.0777166 21.1154 0.254576 -2.67006 0.917079 8.52605 9.51044 -0.0 0.0 -0.0 8.2082 6.78021 -16.027 -28.4189 15.7649 -52.3412 2.19491 47.3886 -0.96333 17.6925 -0.280508 2.23368 -0.575827 -2.97442 2.56273 0.0 0.0 0.0 24.4228 -10.3273 1.71118 -29.9801 0.0448294 4.54848 32.0229 9.99073 -4.11078 -16.5883 0.0 0.0 -0.0 0.0 -0.0 10.2804 2.57262 6.00234 -8.86377 -0.262216 -1.33369 14.2763 -20.5594 2.0496 3.21358 -0.0 -0.0 0.0 0.0 0.0 
